# xmcd
#
# Track frame offsets: 
#        150
#        13012
#        31553
#        42901
#        54643
#        67821
#        84489
#        95256
#        105334
#        116397
#        127439
#        146809
#        157364
#        169199
#        193438
#
# Disc length: 3015 seconds
#
# Revision: 0
# Processed by: cddbd v1.4PL0 Copyright (c) Steve Scherf et al.
# Submitted via: ExactAudioCopy v0.95a3
#
DISCID=cf0bc50f
DTITLE=Various Artist - Elvis Lives in Estonia
DYEAR=2000
DGENRE=
TTITLE0=That's all right
TTITLE1=Jailhouse rock
TTITLE2=Heartbreak hotel
TTITLE3=Hound dog
TTITLE4=Õnnehaldja sarm
TTITLE5=Are you lonesome tonight
TTITLE6=Teddy bear
TTITLE7=Don't be cruel
TTITLE8=Baby let's play house
TTITLE9=All shook up
TTITLE10=Love me tender
TTITLE11=Stuck on you
TTITLE12=Twist nr.2
TTITLE13=Õnnehaldja sarm (studio version)
TTITLE14=video track
EXTD=
EXTT0=
EXTT1=
EXTT2=
EXTT3=
EXTT4=
EXTT5=
EXTT6=
EXTT7=
EXTT8=
EXTT9=
EXTT10=
EXTT11=
EXTT12=
EXTT13=
EXTT14=
PLAYORDER=
